<?xml version="1.0" encoding="UTF-8" standalone="no"?>
<svg
   width="1255.9323pt"
   height="1250.8474pt"
   version="1.1"
   viewBox="0 0 1255.9323 1250.8474"
   id="svg1"
   xml:space="preserve"
   xmlns="http://www.w3.org/2000/svg"
   xmlns:svg="http://www.w3.org/2000/svg"><defs
     id="defs1" /><g
     id="layer1"
     transform="translate(25.423729,20.338984)"><rect
       style="fill:#000000;stroke-width:0.75"
       id="rect1"
       width="1255.9323"
       height="1250.8474"
       x="-25.423729"
       y="-20.338984" /></g><path
     d="m 109.42373,620.33898 c 0,-284.98 231.02,-516 516,-516 284.98,0 515.99997,231.02 515.99997,516 0,284.98 -231.01997,516.00002 -515.99997,516.00002 h -516 z m 709.33,466.17002 c 182.70997,-75.859 311.19997,-256.01002 311.19997,-466.17002 0,-278.64 -225.88997,-504.54 -504.52997,-504.54 -210.16,0 -390.31,128.5 -466.17,311.21 80.125,-163.91 248.5,-276.8 443.23,-276.8 272.31,0 493.06997,220.75 493.06997,493.07 0,194.74 -112.88997,363.11002 -276.79997,443.23002 z m -590.86,-155.45002 c -7.9648,-10.18 -15.551,-20.668 -22.73,-31.453 9.6797,-2.6523 19.871,-4.0703 30.391,-4.0703 63.328,0 114.67,51.34 114.67,114.67002 0,10.52 -1.418,20.711 -4.0703,30.391 -10.785,-7.1797 -21.273,-14.766 -31.453,-22.73 -6.6406,-44.77002 -42.035,-80.16402 -86.805,-86.80502 z m 11.676,14.367 c 18.496,21.93 38.832,42.266 60.762,60.76202 -8.8945,-28.99202 -31.77,-51.86702 -60.762,-60.76202 z m 136.38,113.55002 c -6.6797,-3.8086 -13.266,-7.7617 -19.746,-11.863 3.5664,-11.672 5.4844,-24.066 5.4844,-36.91 0,-69.66002 -56.473,-126.13002 -126.13,-126.13002 -12.844,0 -25.238,1.918 -36.91,5.4844 -4.1016,-6.4805 -8.0547,-13.066 -11.863,-19.746 20.883,-12.777 45.434,-20.141 71.707,-20.141 75.996,0 137.6,61.605 137.6,137.6 0,26.27302 -7.3633,50.82402 -20.141,71.70702 z m 10.035,5.5703 c 4.7773,2.5781 9.5977,5.082 14.465,7.5117 25.793,-28.484 41.504,-66.27 41.504,-107.72002 0,-88.66 -71.871,-160.53 -160.53,-160.53 -41.453,0 -79.238,15.711 -107.72,41.504 2.4297,4.8672 4.9336,9.6875 7.5117,14.465 22.535,-13.688 48.984,-21.57 77.277,-21.57 82.328,0 149.07,66.738 149.07,149.07 0,28.29302 -7.8828,54.74202 -21.57,77.27702 z m 36.023,17.637 c -3.6367,-1.6016 -7.2461,-3.2461 -10.836,-4.9336 26.312,-30.211 42.25,-69.703 42.25,-112.91002 0,-94.992 -77.008,-172 -172,-172 -43.211,0 -82.703,15.938 -112.91,42.25 -1.6875,-3.5898 -3.332,-7.1992 -4.9336,-10.836 33.652,-40.227 84.23,-65.812 140.78,-65.812 101.32,0 183.46,82.141 183.46,183.46 0,56.551 -25.586,107.13002 -65.812,140.78002 z m 11.754,5.0078 c 2.6055,1.0703 5.2227,2.1211 7.8516,3.1484 55.504,-36.992 92.074,-100.16002 92.074,-171.87002 0,-113.99 -92.406,-206.4 -206.4,-206.4 -71.711,0 -134.88,36.57 -171.87,92.074 1.0273,2.6289 2.0781,5.2461 3.1484,7.8516 35.707,-40.199 87.793,-65.527 145.79,-65.527 107.66,0 194.93,87.273 194.93,194.93 0,57.996 -25.328,110.08002 -65.527,145.79002 z m 237.53,-237.52002 c 0,117.11 -73.152,217.14002 -176.26,256.88002 84.309,-44.012 141.86,-132.26002 141.86,-233.95002 0,-145.66 -118.08,-263.73 -263.73,-263.73 -101.69,0 -189.93,57.551 -233.95,141.86 39.738,-103.11 139.77,-176.26 256.88,-176.26 151.99,0 275.2,123.21 275.2,275.2 z m -45.867,22.934 c 0,102.36 -60.969,190.48002 -148.57,230.04002 -0.8125,-0.25 -1.625,-0.5039 -2.4375,-0.7578 69.879,-42.148 116.61,-118.79003 116.61,-206.35003 0,-132.99 -107.81,-240.8 -240.8,-240.8 -87.559,0 -164.2,46.727 -206.35,116.61 -0.25391,-0.8125 -0.50391,-1.625 -0.75781,-2.4375 39.555,-87.602 127.68,-148.57 230.04,-148.57 139.32,0 252.27,112.95 252.27,252.27 z m -474.21,-316.12 c 61.438,-150.86 209.54,-257.21 382.47,-257.21 227.98,0 412.8,184.82 412.8,412.8 0,172.94 -106.34,321.04002 -257.21,382.47002 132.06,-65.703 222.81,-202.03002 222.81,-359.54002 0,-221.65 -179.68,-401.34 -401.34,-401.34 -157.51,0 -293.84,90.746 -359.54,222.81 z m 505.7,540.07002 c 124.1,-62.094 209.31,-190.40002 209.31,-338.61002 0,-208.98 -169.42,-378.4 -378.4,-378.4 -148.21,0 -276.52,85.207 -338.61,209.31 57.824,-142.9 197.91,-243.71 361.54,-243.71 215.32,0 389.87,174.55 389.87,389.87 0,163.63 -100.81,303.72002 -243.71,361.54002 z m -197.12,0.5039 c -1.7109,-0.5937 -3.4219,-1.1953 -5.125,-1.8086 54.816,-39.57 90.492,-104.00001 90.492,-176.77001 0,-120.32 -97.543,-217.87 -217.87,-217.87 -72.77,0 -137.2,35.676 -176.77,90.492 -0.61328,-1.7031 -1.2148,-3.4141 -1.8125,-5.125 38.879,-71.352 114.54,-119.77 201.52,-119.77 126.66,0 229.33,102.68 229.33,229.33 0,86.977 -48.414,162.64001 -119.77,201.52001 z m -318.59,-378.71001 c 43.363,-111.06 151.4,-189.74 277.82,-189.74 164.65,0 298.13,133.48 298.13,298.13 0,126.42 -78.68,234.46001 -189.74,277.82001 92.262,-47.637 155.34,-143.89001 155.34,-254.89001 0,-158.32 -128.34,-286.66 -286.66,-286.66 -110.99,0 -207.25,63.078 -254.89,155.34 z m 461.29,-556.68 c -200.85,0 -372.99,122.96 -445.24,297.71 76.52,-155.95 236.88,-263.3 422.31,-263.3 259.65,0 470.12997,210.48 470.12997,470.13 0,185.43 -107.35997,345.79001 -263.29997,422.31001 174.75,-72.254 297.70997,-244.39001 297.70997,-445.24001 0,-265.98 -215.61997,-481.6 -481.59997,-481.6 z m 401.32997,527.47 c 0,176.12 -101.81997,328.47001 -249.79997,401.39001 166.79,-68.648 284.19997,-232.77001 284.19997,-424.32001 0,-253.32 -205.34997,-458.67 -458.66997,-458.67 -191.55,0 -355.67,117.42 -424.32,284.2 72.914,-147.98 225.26,-249.8 401.39,-249.8 246.98,0 447.19997,200.21 447.19997,447.2 z m -561.86997,-206.4 c -135.72,0 -251.77,84.211 -298.75,203.23 51.25,-100.22 155.52,-168.83 275.82,-168.83 170.98,0 309.6,138.61 309.6,309.6 0,120.3 -68.605,224.57001 -168.83,275.82001 119.02,-46.984 203.23,-163.03001 203.23,-298.75001 0,-177.32 -143.75,-321.07 -321.07,-321.07 z m -288.73,41.371 c 65.043,-158.82 221.15,-270.7 403.39,-270.7 240.65,0 435.73,195.09 435.73,435.73 0,182.24 -111.88,338.35001 -270.7,403.39001 140.02,-69.309 236.3,-213.64001 236.3,-380.46001 0,-234.32 -189.95,-424.27 -424.27,-424.27 -166.82,0 -311.15,96.277 -380.46,236.3 z m 334.59,-133.1 c -154.32,0 -286.4,95.273 -340.61,230.21 58.48,-116.14 178.78,-195.81 317.68,-195.81 196.32,0 355.47,159.15 355.47,355.47 0,138.9 -79.672,259.20001 -195.81,317.68001 134.94,-54.211 230.21,-186.29001 230.21,-340.61001 0,-202.65 -164.28,-366.93 -366.93,-366.93 z m 286.67,412.8 c 0,129.6 -74.141,241.88001 -182.32,296.75001 126.98,-50.598 216.72,-174.66001 216.72,-319.68001 0,-189.99 -154.02,-344 -344,-344 -145.02,0 -269.09,89.742 -319.68,216.72 54.867,-108.18 167.15,-182.32 296.75,-182.32 183.66,0 332.54,148.88 332.54,332.54 z"
     fill-rule="evenodd"
     fill="#ffffff"
     id="path1-8" /></svg>
