<?xml version="1.0" encoding="UTF-8" standalone="no"?>
<svg
   width="1001.1522pt"
   height="999.63477pt"
   version="1.1"
   viewBox="0 0 1001.1522 999.63477"
   id="svg1"
   sodipodi:docname="noun-abstract-6171898.svg"
   xml:space="preserve"
   inkscape:export-filename="noun-abstract-6171898.svg"
   inkscape:export-xdpi="96"
   inkscape:export-ydpi="96"
   xmlns:inkscape="http://www.inkscape.org/namespaces/inkscape"
   xmlns:sodipodi="http://sodipodi.sourceforge.net/DTD/sodipodi-0.dtd"
   xmlns="http://www.w3.org/2000/svg"
   xmlns:svg="http://www.w3.org/2000/svg"><defs
     id="defs1" /><sodipodi:namedview
     id="namedview1"
     pagecolor="#505050"
     bordercolor="#ffffff"
     borderopacity="1"
     inkscape:showpageshadow="0"
     inkscape:pageopacity="0"
     inkscape:pagecheckerboard="1"
     inkscape:deskcolor="#505050"
     inkscape:document-units="pt" /><g
     inkscape:groupmode="layer"
     id="layer1"
     inkscape:label="bg"
     style="display:none"><rect
       style="fill:#f9f9f9;stroke-width:0.598379"
       id="rect1"
       width="1000"
       height="1000"
       x="-3.5527137e-15"
       y="3.5527137e-15"
       inkscape:label="rect1" /></g><ellipse
     style="display:none;fill:#ffffff;stroke-width:0.752066"
     id="path35"
     cx="499.30939"
     cy="496.54697"
     rx="503.453"
     ry="503.45303" /><rect
     style="display:none;fill:#ffffff;stroke-width:0.694365"
     id="rect34"
     width="505.52484"
     height="497.23755"
     x="-1.3812156"
     y="504.14365" /><path
     d="M 84,600 C 84,315.02 315.02,83.999997 600,83.999997 884.98,83.999997 1116,315.02 1116,600 c 0,284.98 -231.02,516 -516,516 H 84 Z m 709.33,466.17 C 976.04,990.311 1104.53,810.16 1104.53,600 1104.53,321.36 878.64,95.459997 600,95.459997 389.84,95.459997 209.69,223.96 133.83,406.67 c 80.125,-163.91 248.5,-276.8 443.23,-276.8 272.31,0 493.07,220.75 493.07,493.07 0,194.74 -112.89,363.11 -276.8,443.23 z M 202.47,910.72 c -7.9648,-10.18 -15.551,-20.668 -22.73,-31.453 9.6797,-2.6523 19.871,-4.0703 30.391,-4.0703 63.328,0 114.67,51.34 114.67,114.67 0,10.52 -1.418,20.711 -4.0703,30.391 -10.785,-7.1797 -21.273,-14.766 -31.453,-22.73 -6.6406,-44.77 -42.035,-80.164 -86.805,-86.805 z m 11.676,14.367 c 18.496,21.93 38.832,42.266 60.762,60.762 -8.8945,-28.992 -31.77,-51.867 -60.762,-60.762 z m 136.38,113.55 c -6.6797,-3.8086 -13.266,-7.7617 -19.746,-11.863 3.5664,-11.672 5.4844,-24.066 5.4844,-36.91 0,-69.66 -56.473,-126.13 -126.13,-126.13 -12.844,0 -25.238,1.918 -36.91,5.4844 -4.1016,-6.4805 -8.0547,-13.066 -11.863,-19.746 20.883,-12.777 45.434,-20.141 71.707,-20.141 75.996,0 137.6,61.605 137.6,137.6 0,26.273 -7.3633,50.824 -20.141,71.707 z m 10.035,5.5703 c 4.7773,2.5781 9.5977,5.082 14.465,7.5117 25.793,-28.484 41.504,-66.27 41.504,-107.72 0,-88.66 -71.871,-160.53 -160.53,-160.53 -41.453,0 -79.238,15.711 -107.72,41.504 2.4297,4.8672 4.9336,9.6875 7.5117,14.465 22.535,-13.688 48.984,-21.57 77.277,-21.57 82.328,0 149.07,66.738 149.07,149.07 0,28.293 -7.8828,54.742 -21.57,77.277 z m 36.023,17.637 c -3.6367,-1.6016 -7.2461,-3.2461 -10.836,-4.9336 26.312,-30.211 42.25,-69.703 42.25,-112.91 0,-94.992 -77.008,-172 -172,-172 -43.211,0 -82.703,15.938 -112.91,42.25 -1.6875,-3.5898 -3.332,-7.1992 -4.9336,-10.836 33.652,-40.227 84.23,-65.812 140.78,-65.812 101.32,0 183.46,82.141 183.46,183.46 0,56.551 -25.586,107.13 -65.812,140.78 z m 11.754,5.0078 c 2.6055,1.0703 5.2227,2.1211 7.8516,3.1484 55.504,-36.992 92.074,-100.16 92.074,-171.87 0,-113.99 -92.406,-206.4 -206.4,-206.4 -71.711,0 -134.88,36.57 -171.87,92.074 1.0273,2.6289 2.0781,5.2461 3.1484,7.8516 35.707,-40.199 87.793,-65.527 145.79,-65.527 107.66,0 194.93,87.273 194.93,194.93 0,57.996 -25.328,110.08 -65.527,145.79 z m 237.53,-237.52 c 0,117.11 -73.152,217.14 -176.26,256.88 84.309,-44.012 141.86,-132.26 141.86,-233.95 0,-145.66 -118.08,-263.73 -263.73,-263.73 -101.69,0 -189.93,57.551 -233.95,141.86 39.738,-103.11 139.77,-176.26 256.88,-176.26 151.99,0 275.2,123.21 275.2,275.2 z m -45.867,22.934 c 0,102.36 -60.969,190.48 -148.57,230.04 -0.8125,-0.25 -1.625,-0.5039 -2.4375,-0.7578 69.879,-42.148 116.61,-118.79001 116.61,-206.35001 0,-132.99 -107.81,-240.8 -240.8,-240.8 -87.559,0 -164.2,46.727 -206.35,116.61 -0.25391,-0.8125 -0.50391,-1.625 -0.75781,-2.4375 39.555,-87.602 127.68,-148.57 230.04,-148.57 139.32,0 252.27,112.95 252.27,252.27 z m -474.21,-316.12 c 61.438,-150.86 209.54,-257.21 382.47,-257.21 227.98,0 412.8,184.82 412.8,412.8 0,172.94 -106.34,321.04 -257.21,382.47 132.06,-65.703 222.81,-202.03 222.81,-359.54 0,-221.65 -179.68,-401.34 -401.34,-401.34 -157.51,0 -293.84,90.746 -359.54,222.81 z m 505.7,540.07 c 124.1,-62.094 209.31,-190.4 209.31,-338.61 0,-208.98 -169.42,-378.4 -378.4,-378.4 -148.21,0 -276.52,85.207 -338.61,209.31 57.824,-142.9 197.91,-243.71 361.54,-243.71 215.32,0 389.87,174.55 389.87,389.87 0,163.63 -100.81,303.72 -243.71,361.54 z m -197.12,0.5039 c -1.7109,-0.5937 -3.4219,-1.1953 -5.125,-1.8086 54.816,-39.57 90.492,-103.99999 90.492,-176.76999 0,-120.32 -97.543,-217.87 -217.87,-217.87 -72.77,0 -137.2,35.676 -176.77,90.492 -0.61328,-1.7031 -1.2148,-3.4141 -1.8125,-5.125 38.879,-71.352 114.54,-119.77 201.52,-119.77 126.66,0 229.33,102.68 229.33,229.33 0,86.977 -48.414,162.63999 -119.77,201.51999 z M 115.781,698.01001 c 43.363,-111.06 151.4,-189.74 277.82,-189.74 164.65,0 298.13,133.48 298.13,298.13 0,126.42 -78.68,234.45999 -189.74,277.81999 92.262,-47.637 155.34,-143.88999 155.34,-254.88999 0,-158.32 -128.34,-286.66 -286.66,-286.66 -110.99,0 -207.25,63.078 -254.89,155.34 z m 461.29,-556.68 c -200.85,0 -372.99,122.96 -445.24,297.71 76.52,-155.95 236.88,-263.3 422.31,-263.3 259.65,0 470.13,210.48 470.13,470.13 0,185.43 -107.36,345.79 -263.3,422.30999 174.75,-72.25399 297.71,-244.38999 297.71,-445.23999 0,-265.98 -215.62,-481.6 -481.6,-481.6 z m 401.33,527.47 c 0,176.12 -101.82,328.47 -249.8,401.38999 166.79,-68.648 284.2,-232.76999 284.2,-424.31999 0,-253.32 -205.35,-458.67 -458.67,-458.67 -191.55,0 -355.67,117.42 -424.32,284.2 72.914,-147.98 225.26,-249.8 401.39,-249.8 246.98,0 447.2,200.21 447.2,447.2 z m -561.87,-206.4 c -135.72,0 -251.77,84.211 -298.75,203.23 51.25,-100.22 155.52,-168.83 275.82,-168.83 170.98,0 309.6,138.61 309.6,309.6 0,120.3 -68.605,224.56999 -168.83,275.81999 119.02,-46.984 203.23,-163.02999 203.23,-298.74999 0,-177.32 -143.75,-321.07 -321.07,-321.07 z m -288.73,41.371 c 65.043,-158.82 221.15,-270.7 403.39,-270.7 240.65,0 435.73,195.09 435.73,435.73 0,182.24 -111.88,338.34999 -270.7,403.38999 140.02,-69.309 236.3,-213.63999 236.3,-380.45999 0,-234.32 -189.95,-424.27 -424.27,-424.27 -166.82,0 -311.15,96.277 -380.46,236.3 z m 334.59,-133.1 c -154.32,0 -286.4,95.273 -340.61,230.21 58.48,-116.14 178.78,-195.81 317.68,-195.81 196.32,0 355.47,159.15 355.47,355.47 0,138.9 -79.672,259.19999 -195.81,317.67999 134.94,-54.211 230.21,-186.28999 230.21,-340.60999 0,-202.65 -164.28,-366.93 -366.93,-366.93 z m 286.67,412.8 c 0,129.6 -74.141,241.87999 -182.32,296.74999 126.98,-50.598 216.72,-174.65999 216.72,-319.67999 0,-189.99 -154.02,-344 -344,-344 -145.02,0 -269.09,89.742 -319.68,216.72 54.867,-108.18 167.15,-182.32 296.75,-182.32 183.66,0 332.54,148.88 332.54,332.54 z"
     fill-rule="evenodd"
     fill="#ffffff"
     id="path1-8"
     style="display:none;opacity:1;fill:#ff00ff" /><g
     style="display:none;fill:none;stroke:#ff00ff;stroke-width:2"
     id="g1"
     transform="matrix(2.7579914,0,0,2.7516355,-1.951613,-167.84977)"><circle
       cx="17"
       cy="407"
       r="15"
       id="circle1" /><circle
       cx="32"
       cy="392"
       r="30"
       id="circle2" /><circle
       cx="47"
       cy="377"
       r="45"
       id="circle3" /><circle
       cx="62"
       cy="362"
       r="60"
       id="circle4" /><circle
       cx="77"
       cy="347"
       r="75"
       id="circle5" /><circle
       cx="92"
       cy="332"
       r="90"
       id="circle6" /><circle
       cx="107"
       cy="317"
       r="105"
       id="circle7" /><circle
       cx="122"
       cy="302"
       r="120"
       id="circle8" /><circle
       cx="137"
       cy="287"
       r="135"
       id="circle9" /><circle
       cx="152"
       cy="272"
       r="150"
       id="circle10" /><circle
       cx="167"
       cy="257"
       r="165"
       id="circle11" /><circle
       cx="182"
       cy="242"
       r="180"
       id="circle12" /></g><g
     style="fill:none;stroke:#ff00ff;stroke-width:2"
     id="g35"
     transform="matrix(16.147615,0,0,16.123143,-16.147615,-338.586)"><circle
       cx="7"
       cy="77"
       r="5"
       id="circle1-5" /><circle
       cx="12"
       cy="72"
       r="10"
       id="circle2-1" /><circle
       cx="17"
       cy="67"
       r="15"
       id="circle3-3" /><circle
       cx="22"
       cy="62"
       r="20"
       id="circle4-9" /><circle
       cx="27"
       cy="57"
       r="25"
       id="circle5-7" /><circle
       cx="32"
       cy="52"
       r="30"
       id="circle6-3" /></g><path
     style="fill:#ffffff;stroke-width:1.38121"
     d="M 271.31234,906.6 C 193.38828,862.1709 130.7355,798.2601 88.241325,719.85309 l -3.98718,-7.35684 4.834253,-4.13733 c 11.912422,-10.19506 33.507822,-20.76639 53.176792,-26.03097 14.18254,-3.79608 40.30177,-5.1299 56.06252,-2.86291 51.85698,7.45897 96.767,43.77202 114.61393,92.67383 7.0335,19.27223 8.67617,29.02335 8.60246,51.06555 -0.0807,24.1395 -3.64902,40.06718 -13.59787,60.69638 -5.61652,11.646 -16.77768,29.18595 -19.73479,31.01355 -0.6114,0.37785 -8.21599,-3.3636 -16.8991,-8.31435 z"
     id="path36" /><path
     style="fill:#ffffff;stroke-width:1.38121"
     d="m 341.16022,938.66482 c -6.83702,-2.51212 -14.45443,-5.43337 -16.92758,-6.49185 l -4.49665,-1.92435 5.61219,-8.28727 c 38.16133,-56.35125 40.40856,-131.77733 5.67349,-190.42479 -32.15169,-54.28564 -89.27572,-86.67417 -152.84488,-86.66092 -37.13294,0.008 -68.05381,8.97593 -98.544505,28.58154 -6.870437,4.41771 -10.463962,6.01106 -11.129225,4.93464 -0.540377,-0.87435 -3.678971,-9.04211 -6.974653,-18.15059 l -5.992148,-16.56088 4.561474,-8.64957 c 14.174526,-26.87805 44.812797,-61.11002 69.736527,-77.91623 60.53168,-40.81685 130.48818,-51.12658 198.20441,-29.21006 109.29792,35.37453 174.93657,149.15093 150.57126,260.99651 -13.36996,61.37295 -51.69503,113.93295 -107.34652,147.2178 -6.66827,3.98827 -13.37246,7.22032 -14.89819,7.18237 -1.52573,-0.0375 -8.36798,-2.1243 -15.205,-4.63635 z"
     id="path37" /><path
     style="fill:#ffffff;stroke-width:1.38121"
     d="m 406.34711,957.53122 c -3.66436,-0.51735 -3.27596,-0.9921 7.1809,-8.77672 C 530.14163,861.9411 551.64796,694.21052 460.77283,580.28617 392.41127,494.58563 276.5954,461.56988 171.96133,497.95439 125.372,514.15494 80.535008,546.85713 51.645546,585.70758 c -3.924727,5.27796 -7.75891,9.59628 -8.520406,9.59628 -4.445816,0 4.698526,-32.10126 17.01331,-59.72534 37.952347,-85.13329 117.94411,-150.92524 209.19856,-172.06249 46.06364,-10.66972 95.04876,-10.52389 141.0428,0.41987 110.49697,26.29152 198.50874,113.49309 225.589,223.51234 6.57546,26.71416 8.69024,44.29923 8.75162,72.77275 0.0638,29.56942 -2.32615,48.93326 -9.54188,77.31152 -25.26807,99.37509 -102.30673,181.59909 -199.93809,213.39556 -20.57027,6.6993 -23.48856,7.3662 -28.89335,6.60315 z"
     id="path38" /><path
     style="fill:#ffffff;stroke-width:1.38121"
     d="m 525.90522,944.31322 c 22.29993,-14.89215 35.64573,-25.78012 53.5705,-43.7049 C 685.74505,794.33902 709.33843,631.01817 637.50816,498.88938 611.41764,450.89694 572.61937,408.69261 526.24309,377.85641 510.05855,367.09509 473.87222,348.87483 454.97068,341.96986 397.45147,320.95738 328.75435,316.3991 267.26519,329.51499 178.83632,348.37722 97.759327,405.22539 50.987717,481.16074 c -3.677951,5.97128 -6.874014,10.29638 -7.102362,9.61134 C 43.295861,489.0036 51.88613,460.42385 57.925463,444.06077 65.724047,422.93113 82.33866,390.42972 95.805255,369.96051 140.18741,302.49969 204.22157,250.27192 278.42475,221.01176 323.966,203.05372 368.69073,194.75138 419.8895,194.75138 c 86.52445,0 163.64018,25.84774 234.11603,78.47126 19.06836,14.23814 56.18383,50.78329 70.40056,69.3188 49.91341,65.07612 76.97056,136.8677 81.39346,215.9637 7.73962,138.41043 -58.04965,268.48873 -174.58408,345.18681 -18.55879,12.21465 -56.64565,31.48417 -76.83601,38.87407 -13.81225,5.05553 -40.98464,13.2351 -43.96663,13.2351 -0.94051,0 6.03106,-5.1696 15.49239,-11.4879 z"
     id="path39" /><path
     style="fill:#ffffff;stroke-width:1.38121"
     d="m 625,947.29365 c 43.30403,-26.3004 65.29083,-43.0935 93.29385,-71.25608 65.43132,-65.80425 105.8804,-148.59694 118.93505,-243.44089 3.35587,-24.38054 3.33397,-79.60554 -0.0412,-104.28177 C 829.70197,473.58773 813.6366,423.73432 789.24562,379.54298 678.70838,179.27299 431.6504,103.24401 228.12786,206.86608 155.91481,243.63287 92.116163,304.5669 53.839271,373.32897 47.080994,385.4698 47.826323,380.06724 56.466992,354.28176 87.537593,261.56094 142.40697,185.16261 219.71862,126.97549 284.39301,78.299562 359.10719,47.830668 441.29834,36.61393 c 22.76105,-3.106232 70.93272,-4.206005 95.99447,-2.191581 171.85948,13.813789 322.62786,120.969491 391.64316,278.352721 26.2365,59.83001 38.5626,119.31026 38.59215,186.2283 0.024,53.71341 -7.17885,99.89245 -22.9629,147.22446 -46.97865,140.87639 -159.40785,252.42772 -300.01494,297.67252 -21.7941,7.01295 -26.99694,7.91602 -19.55028,3.3933 z"
     id="path40" /></svg>
