<?xml version="1.0" encoding="UTF-8" standalone="no"?>
<svg
   version="1.1"
   x="0px"
   y="0px"
   viewBox="0 0 2500 3906.25"
   enable-background="new 0 0 50 50"
   xml:space="preserve"
   id="svg6"
   width="2500"
   height="3906.25"
   xmlns="http://www.w3.org/2000/svg"
   xmlns:svg="http://www.w3.org/2000/svg"><defs
     id="defs6" /><g
     id="g5"><path
       d="m 16.9847,23.9783 c 0.6381,0.9855 1.9572,1.2682 2.9424,0.6296 0.9865,-0.6384 1.2686,-1.9559 0.6296,-2.9424 l -3.1839,-4.919 5.905,-3.0753 C 24.3199,13.1283 24.7251,11.8431 24.1822,10.801 23.6394,9.7584 22.3526,9.3532 21.3121,9.8966 l -7.9793,4.1559 c -1.1122,0.5794 -1.4845,1.9917 -0.8032,3.0436 z"
       id="path1" /><path
       d="m 14.6774,33.2548 -2.0214,-0.4893 -4.8301,9.99 c -0.5107,1.0533 -0.0745,2.33 0.9894,2.8407 1.0532,0.5107 2.33,0.0638 2.8406,-0.9894 l 1.3831,-2.8513 c -0.2336,-0.8304 -0.0856,-0.8144 1.6384,-8.5007 z"
       id="path2" /><path
       d="m 28.5933,27.6054 -3.8833,2.2236 1.3512,6.3303 -4.1068,9.8943 c -0.4468,1.0852 0.0745,2.33 1.1597,2.7875 1.1453,0.4578 2.3452,-0.121 2.7768,-1.1597 4.469,-10.7844 4.6976,-10.7633 4.4684,-11.7562 z"
       id="path3" /><path
       d="m 16.4222,24.9776 -1.8618,3.862 2.33,0.5638 2.9363,-1.6809 0.6702,-1.3832 1.1277,0.3511 8.373,-4.7876 1.1703,-3.7982 2.032,1.9576 3.4365,-2.5853 c -6.8538,-6.6373 -3.762,-4.7537 -11.5008,-7.1495 0.0106,0.0106 0.0106,0.0213 0.0106,0.0319 0.0638,0.1064 0.1064,0.2128 0.1383,0.3192 0.2448,0.6596 0.266,1.3831 0.0532,2.064 -0.2554,0.8086 -0.8085,1.4788 -1.564,1.8725 l -4.8727,2.5321 c 2.6589,4.0991 3.3403,4.7627 2.9896,6.3408 -0.5541,2.5757 -3.7741,3.3654 -5.4684,1.4897 z"
       id="path4" /><circle
       cx="28.456699"
       cy="5.2563"
       r="4.2556"
       id="circle4" /><path
       d="m 43.2463,20.02 -2.8152,-6.5393 c 0.3443,-0.7518 0.3593,-1.6451 -0.055,-2.4338 -0.71,-1.3513 -2.3809,-1.8712 -3.7322,-1.1613 -1.3513,0.71 -1.8712,2.381 -1.1612,3.7322 0.4144,0.7887 1.1585,1.2832 1.973,1.4262 L 39.2146,17.8433 17.0507,30.5425 7.9766,28.3377 C 7.4052,28.1979 6.8301,28.5502 6.6914,29.12 c -0.1387,0.5714 0.2115,1.1465 0.7823,1.2852 l 8.4708,2.0582 c -1.9214,8.5681 -2.4641,9.4312 -1.0935,9.7378 0.0784,0.0176 0.1564,0.026 0.2338,0.026 0.4868,0 0.9263,-0.3361 1.0369,-0.8312 l 2.0253,-9.0294 22.2006,-12.7203 0.8959,1.426 c 0.3153,0.5018 0.9638,0.6765 1.4885,0.4008 0.5245,-0.2756 0.7487,-0.9087 0.5143,-1.4531 z"
       id="path5" /></g><text
     x="29.263771"
     y="47.092579"
     fill="currentColor"
     font-size="1.51539px"
     font-weight="bold"
     font-family="'Helvetica Neue', Helvetica, Arial-Unicode, Arial, Sans-serif"
     id="text5"
     style="stroke-width:0.303078">Created by ProSymbols</text><text
     x="33.898304"
     y="48.450489"
     fill="currentColor"
     font-size="1.1533px"
     font-weight="bold"
     font-family="'Helvetica Neue', Helvetica, Arial-Unicode, Arial, Sans-serif"
     id="text6"
     style="stroke-width:0.23066">from the Noun Project</text></svg>
